<?xml version="1.0" encoding="UTF-8" standalone="no"?>
<!DOCTYPE svg PUBLIC "-//W3C//DTD SVG 1.1//EN" "http://www.w3.org/Graphics/SVG/1.1/DTD/svg11.dtd">
<svg version="1.1" xmlns="http://www.w3.org/2000/svg" xmlns:xlink="http://www.w3.org/1999/xlink" preserveAspectRatio="xMidYMid meet" viewBox="0 0 640 640" width="500" height="500"><defs><path d="M319.87 481.88L319.48 488.21L318.85 494.48L317.96 500.68L316.84 506.79L315.48 512.81L313.89 518.75L312.07 524.59L310.03 530.33L307.77 535.96L305.31 541.49L302.64 546.89L299.76 552.18L296.69 557.34L293.43 562.37L289.99 567.27L286.36 572.02L282.56 576.63L278.58 581.08L274.44 585.38L270.14 589.52L265.68 593.5L261.08 597.3L256.32 600.93L251.43 604.37L246.4 607.64L241.24 610.7L235.95 613.58L230.54 616.25L225.02 618.72L219.39 620.97L213.65 623.01L207.81 624.83L201.87 626.42L195.85 627.78L189.73 628.91L183.54 629.79L177.27 630.43L170.93 630.81L164.53 630.94L158.12 630.81L151.79 630.43L145.52 629.79L139.32 628.91L133.21 627.78L127.19 626.42L121.25 624.83L115.41 623.01L109.67 620.97L104.04 618.72L98.51 616.25L93.11 613.58L87.82 610.7L82.66 607.64L77.63 604.37L72.73 600.93L67.98 597.3L63.37 593.5L58.92 589.52L54.62 585.38L50.48 581.08L46.5 576.63L42.7 572.02L39.07 567.27L35.63 562.37L32.36 557.34L29.3 552.18L26.42 546.89L23.75 541.49L21.28 535.96L19.03 530.33L16.99 524.59L15.17 518.75L13.58 512.81L12.22 506.79L11.09 500.68L10.21 494.48L9.57 488.21L9.19 481.88L9.06 475.47L9.19 469.07L9.57 462.73L10.21 456.46L11.09 450.27L12.22 444.15L13.58 438.13L15.17 432.19L16.99 426.35L19.03 420.61L21.28 414.98L23.75 409.46L26.42 404.05L29.3 398.76L32.36 393.6L35.63 388.57L39.07 383.68L42.7 378.92L46.5 374.32L50.48 369.86L54.62 365.56L58.92 361.42L63.37 357.44L67.98 353.64L72.73 350.01L77.63 346.57L82.66 343.31L87.82 340.24L93.11 337.36L98.51 334.69L104.04 332.23L109.67 329.97L115.41 327.93L121.25 326.11L127.19 324.52L133.21 323.16L139.32 322.04L145.52 321.15L151.79 320.52L158.12 320.13L164.53 320L320 320L320 475.47L319.87 481.88ZM488.21 9.57L494.48 10.21L500.68 11.09L506.79 12.22L512.81 13.58L518.75 15.17L524.59 16.99L530.33 19.03L535.96 21.28L541.49 23.75L546.89 26.42L552.18 29.3L557.34 32.36L562.37 35.63L567.27 39.07L572.02 42.7L576.63 46.5L581.08 50.48L585.38 54.62L589.52 58.92L593.5 63.37L597.3 67.98L600.93 72.73L604.37 77.63L607.64 82.66L610.7 87.82L613.58 93.11L616.25 98.51L618.72 104.04L620.97 109.67L623.01 115.41L624.83 121.25L626.42 127.19L627.78 133.21L628.91 139.32L629.79 145.52L630.43 151.79L630.81 158.12L630.94 164.53L630.81 170.93L630.43 177.27L629.79 183.54L628.91 189.73L627.78 195.85L626.42 201.87L624.83 207.81L623.01 213.65L620.97 219.39L618.72 225.02L616.25 230.54L613.58 235.95L610.7 241.24L607.64 246.4L604.37 251.43L600.93 256.32L597.3 261.08L593.5 265.68L589.52 270.14L585.38 274.44L581.08 278.58L576.63 282.56L572.02 286.36L567.27 289.99L562.37 293.43L557.34 296.69L552.18 299.76L546.89 302.64L541.49 305.31L535.96 307.77L530.33 310.03L524.59 312.07L518.75 313.89L512.81 315.48L506.79 316.84L500.68 317.96L494.48 318.85L488.21 319.48L481.88 319.87L475.47 320L320 320L320 164.53L320.13 158.12L320.52 151.79L321.15 145.52L322.04 139.32L323.16 133.21L324.52 127.19L326.11 121.25L327.93 115.41L329.97 109.67L332.23 104.04L334.69 98.51L337.36 93.11L340.24 87.82L343.31 82.66L346.57 77.63L350.01 72.73L353.64 67.98L357.44 63.37L361.42 58.92L365.56 54.62L369.86 50.48L374.32 46.5L378.92 42.7L383.68 39.07L388.57 35.63L393.6 32.36L398.76 29.3L404.05 26.42L409.46 23.75L414.98 21.28L420.61 19.03L426.35 16.99L432.19 15.17L438.13 13.58L444.15 12.22L450.27 11.09L456.46 10.21L462.73 9.57L469.07 9.19L475.47 9.06L481.88 9.19L488.21 9.57Z" id="b3KWCpIT3M"></path><path d="" id="ak3oA3PY3"></path></defs><g><g><g><g><use xlink:href="#b3KWCpIT3M" opacity="1" fill-opacity="0" stroke="#000000" stroke-width="5" stroke-opacity="1"></use></g></g><g><g><use xlink:href="#ak3oA3PY3" opacity="1" fill-opacity="0" stroke="#000000" stroke-width="1" stroke-opacity="1"></use></g></g></g></g></svg>